<svg 
 xmlns="http://www.w3.org/2000/svg"
 xmlns:xlink="http://www.w3.org/1999/xlink"
 width="309px" height="408px">
<path fill-rule="evenodd"  fill="rgb(0, 0, 0)"
 d="M114.000,162.000 C114.000,149.001 114.000,135.999 114.000,123.000 C113.333,123.000 112.667,123.000 112.000,123.000 C102.791,135.566 69.050,154.272 53.000,161.000 C46.757,163.617 38.250,163.219 33.000,167.000 C30.480,171.022 32.000,182.067 32.000,188.000 C32.000,205.332 32.000,222.668 32.000,240.000 C32.333,240.000 32.667,240.000 33.000,240.000 C33.000,240.333 33.000,240.667 33.000,241.000 C50.088,242.078 83.112,261.483 95.000,270.000 C101.276,274.496 106.274,282.185 114.000,285.000 C114.000,273.001 114.000,260.999 114.000,249.000 C124.666,249.000 135.334,249.000 146.000,249.000 C146.000,287.330 146.000,325.671 146.000,364.000 C146.000,373.086 148.449,402.446 145.000,408.000 C144.303,389.639 134.885,372.233 128.000,359.000 C106.290,317.275 62.681,268.602 -0.000,269.000 C-0.000,225.671 -0.000,182.329 -0.000,139.000 C60.675,138.662 112.125,87.791 131.000,45.000 C135.125,35.649 138.893,25.533 142.000,16.000 C143.746,10.642 143.152,4.306 146.000,-0.000 C146.000,53.661 146.000,107.339 146.000,161.000 C138.006,163.690 123.820,162.082 114.000,162.000 ZM276.000,217.000 C257.354,215.030 215.421,212.845 194.000,217.000 C194.000,256.663 194.000,296.337 194.000,336.000 C182.513,345.377 172.743,373.413 167.000,389.000 C164.883,394.747 165.337,403.161 162.000,408.000 C162.000,309.010 162.000,209.990 162.000,111.000 C162.000,84.336 162.000,57.664 162.000,31.000 C162.000,22.875 159.395,5.833 163.000,-0.000 C163.685,16.752 171.595,30.578 177.000,43.000 C193.975,82.008 224.038,113.198 263.000,130.000 C271.666,132.666 280.334,135.334 289.000,138.000 C294.331,139.392 302.702,137.381 307.000,140.000 C309.944,144.737 308.000,167.306 308.000,175.000 C308.000,205.997 308.000,237.003 308.000,268.000 C307.667,268.000 307.333,268.000 307.000,268.000 C307.000,268.333 307.000,268.667 307.000,269.000 C281.316,268.676 259.438,279.778 243.000,290.000 C237.386,293.491 232.961,298.902 226.000,301.000 C226.000,289.001 226.000,276.999 226.000,265.000 C237.721,258.509 249.359,251.099 262.000,245.000 C265.262,243.427 274.368,243.005 276.000,240.000 C276.000,232.334 276.000,224.666 276.000,217.000 ZM276.000,185.000 C276.000,179.334 276.000,173.666 276.000,168.000 C274.916,167.091 275.915,168.078 275.000,167.000 C253.117,164.617 225.397,146.831 210.000,136.000 C204.617,132.213 200.915,126.390 194.000,124.000 C194.000,143.998 194.000,164.002 194.000,184.000 C200.234,186.065 211.076,185.000 219.000,185.000 C237.998,185.000 257.002,185.000 276.000,185.000 Z"/>
</svg>